<svg xmlns="http://www.w3.org/2000/svg" viewBox="0 0 500 500"><g id="freepik--background-complete--inject-270"><rect x="113.88" y="388.58" width="66.04" height="5.12" style="fill:#ebebeb"></rect><rect x="161.78" y="388.58" width="18.13" height="5.12" style="fill:#e0e0e0"></rect><path d="M105.49,393.71v23.07h-3.61v2.51h3.61v15.44h67.62V420.68h-5v-3.06h5V413h2.23v-2.08H172.7V393.71Z" style="fill:#f5f5f5"></path><polygon points="155.16 393.77 155.16 434.47 173.11 434.47 173.11 420.42 168.1 420.42 168.1 417.62 173.11 417.62 173.11 413.02 175.34 413.02 175.34 410.68 172.69 410.68 172.69 393.71 155.16 393.77" style="fill:#e0e0e0"></polygon><path d="M156.44,419c0,.15-12.24.26-27.33.26s-27.33-.11-27.33-.26,12.23-.25,27.33-.25S156.44,418.81,156.44,419Z" style="fill:#e0e0e0"></path><path d="M156.44,416.61c0,.14-12.24.26-27.33.26s-27.33-.12-27.33-.26,12.23-.26,27.33-.26S156.44,416.47,156.44,416.61Z" style="fill:#e0e0e0"></path><path d="M160,410.3c0,.14-12.24.26-27.33.26s-27.33-.12-27.33-.26,12.23-.25,27.33-.25S160,410.16,160,410.3Z" style="fill:#e0e0e0"></path><path d="M160.28,427.49c0,.14-12.23.26-27.32.26s-27.33-.12-27.33-.26,12.23-.25,27.33-.25S160.28,427.35,160.28,427.49Z" style="fill:#e0e0e0"></path><path d="M113.16,439.62v23.07h-3.61v2.51h3.61v15.44h67.62V466.59h-5v-3.06h5v-4.59H183v-2.09h-2.64V439.62Z" style="fill:#f5f5f5"></path><polygon points="162.83 439.69 162.83 480.38 180.78 480.38 180.78 466.33 175.77 466.33 175.77 463.53 180.78 463.62 180.78 459.03 183.05 459.04 183.01 456.66 180.37 456.59 180.37 439.62 162.83 439.69" style="fill:#e0e0e0"></polygon><path d="M164.11,464.87c0,.14-12.24.25-27.33.25s-27.33-.11-27.33-.25,12.23-.26,27.33-.26S164.11,464.73,164.11,464.87Z" style="fill:#e0e0e0"></path><path d="M164.11,462.52c0,.14-12.24.26-27.33.26s-27.33-.12-27.33-.26,12.23-.25,27.33-.25S164.11,462.38,164.11,462.52Z" style="fill:#e0e0e0"></path><path d="M167.62,456.21c0,.15-12.24.26-27.33.26s-27.33-.11-27.33-.26,12.23-.25,27.33-.25S167.62,456.07,167.62,456.21Z" style="fill:#e0e0e0"></path><path d="M168,473.4c0,.15-12.23.26-27.32.26s-27.33-.11-27.33-.26,12.23-.25,27.33-.25S168,473.26,168,473.4Z" style="fill:#e0e0e0"></path><path d="M112.18,347.56v23.07h-3.61v2.51h3.61v15.44H179.8V374.53h-5v-3.06h5v-4.59H182v-2.09h-2.65V347.56Z" style="fill:#f5f5f5"></path><polygon points="161.84 347.63 161.84 388.33 179.8 388.33 179.8 374.27 174.79 374.27 174.79 371.47 179.8 371.56 179.8 366.97 182.07 366.98 182.03 364.6 179.38 364.53 179.38 347.56 161.84 347.63" style="fill:#e0e0e0"></polygon><path d="M163.12,372.81c0,.14-12.23.25-27.32.25s-27.33-.11-27.33-.25,12.23-.26,27.33-.26S163.12,372.67,163.12,372.81Z" style="fill:#e0e0e0"></path><path d="M163.12,370.46c0,.15-12.23.26-27.32.26s-27.33-.11-27.33-.26,12.23-.25,27.33-.25S163.12,370.32,163.12,370.46Z" style="fill:#e0e0e0"></path><path d="M166.63,364.16c0,.14-12.23.25-27.32.25S112,364.3,112,364.16s12.23-.26,27.33-.26S166.63,364,166.63,364.16Z" style="fill:#e0e0e0"></path><path d="M167,381.35c0,.14-12.23.25-27.32.25s-27.33-.11-27.33-.25,12.23-.26,27.33-.26S167,381.2,167,381.35Z" style="fill:#e0e0e0"></path><rect x="109.45" y="434.5" width="66.04" height="5.12" style="fill:#ebebeb"></rect><rect x="157.36" y="434.5" width="18.13" height="5.12" style="fill:#e0e0e0"></rect><rect x="48.2" y="39.41" width="158.26" height="207.78" style="fill:#e0e0e0"></rect><rect x="57.68" y="42.77" width="141.33" height="202.54" style="fill:#ebebeb"></rect><rect x="76.59" y="109.53" width="56.17" height="135.6" style="fill:#e0e0e0"></rect><rect x="85.62" y="126.04" width="8.87" height="8.87" style="fill:#fafafa"></rect><rect x="100.24" y="126.04" width="8.87" height="8.87" style="fill:#fafafa"></rect><rect x="114.86" y="126.04" width="8.87" height="8.87" style="fill:#fafafa"></rect><rect x="85.62" y="139.4" width="8.87" height="8.87" style="fill:#fafafa"></rect><rect x="100.24" y="139.4" width="8.87" height="8.87" style="fill:#fafafa"></rect><rect x="114.86" y="139.4" width="8.87" height="8.87" style="fill:#fafafa"></rect><rect x="85.62" y="152.76" width="8.87" height="8.87" style="fill:#fafafa"></rect><rect x="100.24" y="152.76" width="8.87" height="8.87" style="fill:#fafafa"></rect><rect x="114.86" y="152.76" width="8.87" height="8.87" style="fill:#fafafa"></rect><rect x="85.62" y="166.12" width="8.87" height="8.87" style="fill:#fafafa"></rect><rect x="100.24" y="166.12" width="8.87" height="8.87" style="fill:#fafafa"></rect><rect x="114.86" y="166.12" width="8.87" height="8.87" style="fill:#fafafa"></rect><rect x="85.62" y="179.48" width="8.87" height="8.87" style="fill:#fafafa"></rect><rect x="100.24" y="179.48" width="8.87" height="8.87" style="fill:#fafafa"></rect><rect x="114.86" y="179.48" width="8.87" height="8.87" style="fill:#fafafa"></rect><rect x="85.62" y="192.84" width="8.87" height="8.87" style="fill:#fafafa"></rect><rect x="100.24" y="192.84" width="8.87" height="8.87" style="fill:#fafafa"></rect><rect x="114.86" y="192.84" width="8.87" height="8.87" style="fill:#fafafa"></rect><rect x="85.62" y="206.21" width="8.87" height="8.87" style="fill:#fafafa"></rect><rect x="100.24" y="206.21" width="8.87" height="8.87" style="fill:#fafafa"></rect><rect x="114.86" y="206.21" width="8.87" height="8.87" style="fill:#fafafa"></rect><rect x="85.62" y="219.57" width="8.87" height="8.87" style="fill:#fafafa"></rect><rect x="100.24" y="219.57" width="8.87" height="8.87" style="fill:#fafafa"></rect><rect x="114.86" y="219.57" width="8.87" height="8.87" style="fill:#fafafa"></rect><rect x="85.62" y="232.93" width="8.87" height="8.87" style="fill:#fafafa"></rect><rect x="100.24" y="232.93" width="8.87" height="8.87" style="fill:#fafafa"></rect><rect x="114.86" y="232.93" width="8.87" height="8.87" style="fill:#fafafa"></rect><rect x="127.85" y="153.33" width="38.27" height="92.39" style="fill:#e0e0e0"></rect><rect x="134" y="164.58" width="6.04" height="6.04" style="fill:#fafafa"></rect><rect x="143.96" y="164.58" width="6.04" height="6.04" style="fill:#fafafa"></rect><rect x="153.93" y="164.58" width="6.04" height="6.04" style="fill:#fafafa"></rect><rect x="134" y="173.68" width="6.04" height="6.04" style="fill:#fafafa"></rect><rect x="143.96" y="173.68" width="6.04" height="6.04" style="fill:#fafafa"></rect><rect x="153.93" y="173.68" width="6.04" height="6.04" style="fill:#fafafa"></rect><rect x="134" y="182.78" width="6.04" height="6.04" style="fill:#fafafa"></rect><rect x="143.96" y="182.78" width="6.04" height="6.04" style="fill:#fafafa"></rect><rect x="153.93" y="182.78" width="6.04" height="6.04" style="fill:#fafafa"></rect><rect x="134" y="191.89" width="6.04" height="6.04" style="fill:#fafafa"></rect><rect x="143.96" y="191.89" width="6.04" height="6.04" style="fill:#fafafa"></rect><rect x="153.93" y="191.89" width="6.04" height="6.04" style="fill:#fafafa"></rect><rect x="134" y="200.99" width="6.04" height="6.04" style="fill:#fafafa"></rect><rect x="143.96" y="200.99" width="6.04" height="6.04" style="fill:#fafafa"></rect><rect x="153.93" y="200.99" width="6.04" height="6.04" style="fill:#fafafa"></rect><rect x="134" y="210.1" width="6.04" height="6.04" style="fill:#fafafa"></rect><rect x="143.96" y="210.1" width="6.04" height="6.04" style="fill:#fafafa"></rect><rect x="153.93" y="210.1" width="6.04" height="6.04" style="fill:#fafafa"></rect><rect x="134" y="219.2" width="6.04" height="6.04" style="fill:#fafafa"></rect><rect x="143.96" y="219.2" width="6.04" height="6.04" style="fill:#fafafa"></rect><rect x="153.93" y="219.2" width="6.04" height="6.04" style="fill:#fafafa"></rect><rect x="134" y="228.31" width="6.04" height="6.04" style="fill:#fafafa"></rect><rect x="143.96" y="228.31" width="6.04" height="6.04" style="fill:#fafafa"></rect><rect x="153.93" y="228.31" width="6.04" height="6.04" style="fill:#fafafa"></rect><rect x="134" y="237.41" width="6.04" height="6.04" style="fill:#fafafa"></rect><rect x="143.96" y="237.41" width="6.04" height="6.04" style="fill:#fafafa"></rect><rect x="153.93" y="237.41" width="6.04" height="6.04" style="fill:#fafafa"></rect><rect x="175.5" y="191.22" width="22.16" height="53.49" style="fill:#e0e0e0"></rect><rect x="179.06" y="197.73" width="3.5" height="3.5" style="fill:#fafafa"></rect><rect x="184.83" y="197.73" width="3.5" height="3.5" style="fill:#fafafa"></rect><rect x="190.6" y="197.73" width="3.5" height="3.5" style="fill:#fafafa"></rect><rect x="179.06" y="203" width="3.5" height="3.5" style="fill:#fafafa"></rect><rect x="184.83" y="203" width="3.5" height="3.5" style="fill:#fafafa"></rect><rect x="190.6" y="203" width="3.5" height="3.5" style="fill:#fafafa"></rect><rect x="179.06" y="208.27" width="3.5" height="3.5" style="fill:#fafafa"></rect><rect x="184.83" y="208.27" width="3.5" height="3.5" style="fill:#fafafa"></rect><rect x="190.6" y="208.27" width="3.5" height="3.5" style="fill:#fafafa"></rect><rect x="179.06" y="213.54" width="3.5" height="3.5" style="fill:#fafafa"></rect><rect x="184.83" y="213.54" width="3.5" height="3.5" style="fill:#fafafa"></rect><rect x="190.6" y="213.54" width="3.5" height="3.5" style="fill:#fafafa"></rect><rect x="179.06" y="218.82" width="3.5" height="3.5" style="fill:#fafafa"></rect><rect x="184.83" y="218.82" width="3.5" height="3.5" style="fill:#fafafa"></rect><rect x="190.6" y="218.82" width="3.5" height="3.5" style="fill:#fafafa"></rect><rect x="179.06" y="224.09" width="3.5" height="3.5" style="fill:#fafafa"></rect><rect x="184.83" y="224.09" width="3.5" height="3.5" style="fill:#fafafa"></rect><rect x="190.6" y="224.09" width="3.5" height="3.5" style="fill:#fafafa"></rect><rect x="179.06" y="229.36" width="3.5" height="3.5" style="fill:#fafafa"></rect><rect x="184.83" y="229.36" width="3.5" height="3.5" style="fill:#fafafa"></rect><rect x="190.6" y="229.36" width="3.5" height="3.5" style="fill:#fafafa"></rect><rect x="179.06" y="234.63" width="3.5" height="3.5" style="fill:#fafafa"></rect><rect x="184.83" y="234.63" width="3.5" height="3.5" style="fill:#fafafa"></rect><rect x="190.6" y="234.63" width="3.5" height="3.5" style="fill:#fafafa"></rect><rect x="179.06" y="239.9" width="3.5" height="3.5" style="fill:#fafafa"></rect><rect x="184.83" y="239.9" width="3.5" height="3.5" style="fill:#fafafa"></rect><rect x="190.6" y="239.9" width="3.5" height="3.5" style="fill:#fafafa"></rect><path d="M177.45,121.22a24.67,24.67,0,0,1-20.1-39,24.68,24.68,0,1,0,34.42,34.42A24.58,24.58,0,0,1,177.45,121.22Z" style="fill:#fafafa"></path><polygon points="215.55 39.41 41.14 39.41 43.78 35.41 211.77 35.41 215.55 39.41" style="fill:#e0e0e0"></polygon><polygon points="215.55 47.65 41.14 47.65 43.78 43.65 211.77 43.65 215.55 47.65" style="fill:#e0e0e0"></polygon><polygon points="215.55 55.89 41.14 55.89 43.78 51.89 211.77 51.89 215.55 55.89" style="fill:#e0e0e0"></polygon><polygon points="215.55 64.13 41.14 64.13 43.78 60.13 211.77 60.13 215.55 64.13" style="fill:#e0e0e0"></polygon><polygon points="215.55 72.37 41.14 72.37 43.78 68.37 211.77 68.37 215.55 72.37" style="fill:#e0e0e0"></polygon><polygon points="215.55 80.61 41.14 80.61 43.78 76.61 211.77 76.61 215.55 80.61" style="fill:#e0e0e0"></polygon><polygon points="215.55 88.85 41.14 88.85 43.78 84.85 211.77 84.85 215.55 88.85" style="fill:#e0e0e0"></polygon><polygon points="215.55 97.09 41.14 97.09 43.78 93.09 211.77 93.09 215.55 97.09" style="fill:#e0e0e0"></polygon><polygon points="215.55 105.33 41.14 105.33 43.78 101.33 211.77 101.33 215.55 105.33" style="fill:#e0e0e0"></polygon><rect x="56.19" y="244.71" width="160.64" height="9.35" style="fill:#e0e0e0"></rect><rect x="37.01" y="244.71" width="160.64" height="9.35" style="fill:#f5f5f5"></rect><path d="M68.72,412.77a18.92,18.92,0,0,1,11.77-1.43c2.14.35,4.36,1,5.82,2.6s1.72,4.42.06,5.8a5.56,5.56,0,0,1-3.67.93c-3.11,0-6.57-.58-9,1.29-1.42,1.07-2.37,2.85-4.06,3.37a4,4,0,0,1-4.41-2,6.86,6.86,0,0,1-.5-5.06A7.71,7.71,0,0,1,68.72,412.77Z" style="fill:#ebebeb"></path><path d="M60.51,396.93c2.19,3.13,6.45,2.09,8.42.18s2.81-4.67,3.57-7.31c1.73-6,3.48-12.35,2.19-18.49a10.2,10.2,0,0,0-2.36-5,5.37,5.37,0,0,0-5.09-1.69c-2.14.56-3.48,2.67-4.44,4.67a44.21,44.21,0,0,0-4.36,18.91c0,3.05.35,6.25,2.07,8.76" style="fill:#ebebeb"></path><path d="M54.5,401.42A11.36,11.36,0,0,0,56.27,391a20.18,20.18,0,0,0-6.2-9A33.5,33.5,0,0,0,39,375.39a11.8,11.8,0,0,0-5-.84,5.23,5.23,0,0,0-4.19,2.53c-1.17,2.23-.05,4.94,1.17,7.14a83.36,83.36,0,0,0,7.29,11.11c2.19,2.82,4.69,5.6,8,6.88s6.8,1.12,8.57-1.19" style="fill:#ebebeb"></path><path d="M60.36,444.11a6.72,6.72,0,0,0,.2-1.42c.1-1,.23-2.33.38-3.88a57,57,0,0,1,.87-5.69,43.54,43.54,0,0,1,2.07-6.71,24.78,24.78,0,0,1,3.43-6.08,12.82,12.82,0,0,1,4.33-3.6,12.06,12.06,0,0,1,3.65-1.14,6.88,6.88,0,0,0,1.42-.2,6.7,6.7,0,0,0-1.44,0,11.36,11.36,0,0,0-3.81,1A12.94,12.94,0,0,0,66.89,420a24.14,24.14,0,0,0-3.56,6.2,41.38,41.38,0,0,0-2,6.82,46.37,46.37,0,0,0-.75,5.76c-.13,1.65-.17,3-.2,3.91A6.63,6.63,0,0,0,60.36,444.11Z" style="fill:#e0e0e0"></path><path d="M60.63,441.13a3.2,3.2,0,0,0,0-.66c0-.5,0-1.12,0-1.89,0-1.64,0-4,.09-6.93.14-5.85.65-12.14,1.62-21,.92-8.34,2.16-18.05,3.46-24.37.28-1.43.56-2.73.83-3.86s.47-2.11.67-2.9.33-1.35.45-1.83a2.87,2.87,0,0,0,.11-.65,2.37,2.37,0,0,0-.23.61c-.14.48-.32,1.08-.55,1.81s-.49,1.76-.77,2.89-.61,2.41-.91,3.85a210.82,210.82,0,0,0-3.64,22.61c-1,8.89-1.42,17-1.46,22.85,0,2.94,0,5.31.11,6.95,0,.76.08,1.39.11,1.88A2.71,2.71,0,0,0,60.63,441.13Z" style="fill:#e0e0e0"></path><path d="M60.67,425.51a13.5,13.5,0,0,0,0-2c-.08-1.27-.25-3.1-.61-5.34a70.6,70.6,0,0,0-1.73-7.77,64.89,64.89,0,0,0-3.25-9.21,49.26,49.26,0,0,0-9.55-14.86,24.37,24.37,0,0,0-2.25-2.09c-.34-.29-.65-.58-1-.81l-.87-.61a14.33,14.33,0,0,0-1.66-1.06,59.46,59.46,0,0,1,5.44,4.85,51.83,51.83,0,0,1,9.31,14.82,73.58,73.58,0,0,1,3.27,9.11,77.88,77.88,0,0,1,1.84,7.7c.41,2.22.65,4,.79,5.29A13.58,13.58,0,0,0,60.67,425.51Z" style="fill:#e0e0e0"></path><polygon points="45.57 453.06 47.14 474.5 74.68 474.5 76.25 453.06 45.57 453.06" style="fill:#e0e0e0"></polygon><rect x="42.91" y="444.61" width="36.62" height="8.45" style="fill:#e0e0e0"></rect><polygon points="42.91 473.68 42.91 476.02 44.63 476.02 78.93 476.02 78.93 473.68 42.91 473.68" style="fill:#ebebeb"></polygon><polygon points="46.32 480.14 44.63 476.02 77.62 476.02 75.65 480.14 46.32 480.14" style="fill:#e0e0e0"></polygon><path d="M75.74,460.06a1,1,0,0,1-.13.2l-.41.55-1.61,2.05-.07.09-.07-.09-3.94-5.46h.23l-3.89,5.5-.12.17-.13-.16c-1.44-1.7-3-3.55-4.61-5.48h.27l-.25.32-4.12,5.16-.14.17-.12-.18-3.89-5.49H53l-4.78,5.45-.09.09-.06-.11-1.5-2.51c-.16-.27-.28-.49-.38-.67a.81.81,0,0,1-.12-.24,1.37,1.37,0,0,1,.16.21l.42.65,1.58,2.47-.15,0,4.7-5.51.12-.14.11.15,3.92,5.47h-.27l4.11-5.16.25-.32.13-.17.14.16,4.59,5.49h-.26c1.42-2,2.73-3.81,3.92-5.47l.11-.16.12.16,3.85,5.51h-.14c.71-.84,1.27-1.51,1.67-2l.45-.52Z" style="fill:#f5f5f5"></path><path d="M76.63,452.92c0,.09-6.9.17-15.41.17S45.8,453,45.8,452.92s6.9-.18,15.42-.18S76.63,452.82,76.63,452.92Z" style="fill:#f5f5f5"></path><path d="M78,476.25c0,.1-7.5.17-16.75.17s-16.75-.07-16.75-.17,7.5-.17,16.75-.17S78,476.16,78,476.25Z" style="fill:#f5f5f5"></path><rect x="323.05" y="30.73" width="61.8" height="64.42" style="fill:#e0e0e0"></rect><rect x="318.87" y="30.73" width="61.8" height="64.42" style="fill:#fafafa"></rect><path d="M380.69,95.18H318.85V30.72h61.84Zm-61.81,0h61.77V30.75H318.88Z" style="fill:#e0e0e0"></path><rect x="327.17" y="39.39" width="45.19" height="47.1" style="fill:#fafafa"></rect><path d="M327.17,86.81a7,7,0,0,1-1.11,1.3c-.72.76-1.74,1.79-2.87,2.91s-2.19,2.12-3,2.82a7.18,7.18,0,0,1-1.3,1.09A7.19,7.19,0,0,1,320,93.64c.72-.76,1.74-1.79,2.88-2.92s2.18-2.12,2.95-2.83A7.2,7.2,0,0,1,327.17,86.81Z" style="fill:#e0e0e0"></path><path d="M372.36,86.69a8.5,8.5,0,0,1,1.3,1.12c.76.72,1.79,1.74,2.91,2.87s2.12,2.18,2.82,2.95a7,7,0,0,1,1.09,1.31,7.19,7.19,0,0,1-1.29-1.11c-.76-.72-1.79-1.74-2.92-2.88s-2.12-2.18-2.83-3A6.82,6.82,0,0,1,372.36,86.69Z" style="fill:#e0e0e0"></path><path d="M372.24,39.52a7.42,7.42,0,0,1,1.11-1.3c.72-.76,1.74-1.79,2.87-2.91s2.18-2.12,3-2.82a7.18,7.18,0,0,1,1.3-1.09,7.19,7.19,0,0,1-1.11,1.29c-.72.76-1.74,1.79-2.88,2.92s-2.18,2.12-2.95,2.83A7.2,7.2,0,0,1,372.24,39.52Z" style="fill:#e0e0e0"></path><path d="M327.05,39.64a8,8,0,0,1-1.3-1.12c-.76-.72-1.79-1.73-2.91-2.87s-2.12-2.18-2.82-2.95a7,7,0,0,1-1.09-1.31,7.19,7.19,0,0,1,1.29,1.11c.76.72,1.79,1.74,2.92,2.88s2.12,2.19,2.83,3A6.82,6.82,0,0,1,327.05,39.64Z" style="fill:#e0e0e0"></path><path d="M372.24,86.5a.88.88,0,0,1,0-.23c0-.16,0-.38,0-.66,0-.59,0-1.44,0-2.54,0-2.23,0-5.48-.05-9.6,0-8.25,0-20-.09-34.08l.18.18-45.06,0h0l.2-.2c0,17.29,0,33.47,0,47.11l-.18-.17,32.63.08,9.17,0,2.42,0h0l-2.39,0-9.13,0-32.74.09H327V86.5c0-13.64,0-29.82,0-47.11v-.2h.21l45.06,0h.17v.17c0,14.12-.07,25.91-.09,34.19,0,4.11,0,7.34,0,9.56,0,1.09,0,1.93,0,2.51,0,.27,0,.48,0,.64S372.24,86.5,372.24,86.5Z" style="fill:#e0e0e0"></path><rect x="342.23" y="55.41" width="15.08" height="15.08" style="fill:#ebebeb"></rect><rect x="422.14" y="92.17" width="41.95" height="43.73" style="fill:#e0e0e0"></rect><rect x="419.29" y="92.17" width="41.95" height="43.73" style="fill:#fafafa"></rect><path d="M461.26,135.91h-42V92.15h42Zm-41.95,0h41.92V92.18H419.31Z" style="fill:#e0e0e0"></path><rect x="424.93" y="98.05" width="30.67" height="31.97" style="fill:#fafafa"></rect><path d="M424.93,130.23a4.21,4.21,0,0,1-.75.88c-.49.52-1.18,1.22-1.95,2s-1.48,1.44-2,1.92a5.73,5.73,0,0,1-.88.74,4.53,4.53,0,0,1,.75-.88c.49-.52,1.18-1.22,2-2s1.49-1.44,2-1.92A5.07,5.07,0,0,1,424.93,130.23Z" style="fill:#e0e0e0"></path><path d="M455.61,130.16a4.53,4.53,0,0,1,.88.75c.51.49,1.21,1.18,2,2s1.44,1.48,1.92,2a5.07,5.07,0,0,1,.74.88,4.53,4.53,0,0,1-.88-.75c-.51-.49-1.21-1.18-2-1.95s-1.44-1.49-1.92-2A5.09,5.09,0,0,1,455.61,130.16Z" style="fill:#e0e0e0"></path><path d="M455.52,98.13a5.46,5.46,0,0,1,.76-.88c.49-.51,1.18-1.21,2-2s1.48-1.44,2-1.92a4.88,4.88,0,0,1,.89-.74,4.53,4.53,0,0,1-.75.88c-.49.51-1.18,1.21-2,2s-1.48,1.44-2,1.92A4.52,4.52,0,0,1,455.52,98.13Z" style="fill:#e0e0e0"></path><path d="M424.85,98.21a5.46,5.46,0,0,1-.88-.76c-.52-.49-1.22-1.17-2-2s-1.43-1.48-1.91-2a4.09,4.09,0,0,1-.74-.89,5.72,5.72,0,0,1,.87.76c.52.49,1.22,1.18,2,1.95s1.44,1.49,1.93,2A4.68,4.68,0,0,1,424.85,98.21Z" style="fill:#e0e0e0"></path><path d="M455.52,130v-.6c0-.4,0-1,0-1.73,0-1.51,0-3.71,0-6.51,0-5.6,0-13.58-.07-23.13l.12.12H424.93l.14-.13c0,11.73,0,22.71,0,32l-.12-.12,22.15.06,6.22,0,1.65,0h0l-1.63,0-6.19,0-22.23.06h-.11V130c0-9.26,0-20.24,0-32v-.14h.14l30.58,0h.12v.12c0,9.58,0,17.58-.06,23.2,0,2.79,0,5,0,6.49,0,.74,0,1.31,0,1.71,0,.18,0,.32,0,.43S455.53,130,455.52,130Z" style="fill:#e0e0e0"></path><rect x="435.15" y="108.92" width="10.24" height="10.24" style="fill:#ebebeb"></rect></g><g id="freepik--Floor--inject-270"><path d="M473.6,480.64c0,.15-100.12.26-223.59.26s-223.61-.11-223.61-.26,100.1-.26,223.61-.26S473.6,480.5,473.6,480.64Z" style="fill:#263238"></path></g><g id="freepik--Character--inject-270"><polygon points="257.89 405.34 242.33 454.43 261.1 456.31 278.72 413.67 257.89 405.34" style="fill:#ffbe9d"></polygon><path d="M271.63,437.22l-8.94,22.16s19.53,16.53,18.27,20.79l-43.6-15.79,12.51-35.11Z" style="fill:#FF725E"></path><path d="M249.89,452.61a1.9,1.9,0,0,0-2,1.59,1.82,1.82,0,0,0,1.56,2,2,2,0,0,0,2.07-1.69c0-.93-.92-2-1.84-1.86" style="fill:#e0e0e0"></path><path d="M237.36,464.38l1.4-3.49L280,477.33s1.64,1.55.92,2.84Z" style="fill:#e0e0e0"></path><path d="M263.47,459.42c-.08.21-1.18-.08-2.47.22s-2.18,1-2.35.85.6-1.28,2.17-1.62S263.59,459.24,263.47,459.42Z" style="fill:#263238"></path><path d="M267.36,463c0,.23-1.08.26-2.13.89s-1.6,1.52-1.81,1.43.09-1.34,1.41-2.1S267.43,462.76,267.36,463Z" style="fill:#263238"></path><path d="M268,469.38c-.21,0-.12-1.2.85-2.17s2.13-1.07,2.15-.86-.81.61-1.6,1.42S268.2,469.43,268,469.38Z" style="fill:#263238"></path><path d="M265,454.14c-.16.16-1-.49-2.26-.84s-2.31-.32-2.36-.54,1.14-.65,2.58-.22S265.12,454,265,454.14Z" style="fill:#263238"></path><path d="M266.67,449.63a4.29,4.29,0,0,1-2.18-.8,10.78,10.78,0,0,1-2-1.53,10.1,10.1,0,0,1-1-1.12,2.54,2.54,0,0,1-.47-.75,1,1,0,0,1,.31-1.17,1.28,1.28,0,0,1,1.11-.15,3.54,3.54,0,0,1,.78.41,8.21,8.21,0,0,1,1.18,1,8.31,8.31,0,0,1,1.54,2,3.86,3.86,0,0,1,.64,2.24c-.12,0-.37-.81-1.12-2a9.76,9.76,0,0,0-1.55-1.8,10.75,10.75,0,0,0-1.11-.84c-.42-.29-.81-.43-1-.27s-.09.09,0,.26a2.59,2.59,0,0,0,.35.55,12.4,12.4,0,0,0,.92,1.08,12.77,12.77,0,0,0,1.81,1.57A15.42,15.42,0,0,1,266.67,449.63Z" style="fill:#263238"></path><path d="M266.28,449.84a3.8,3.8,0,0,1,.19-2.32,7.28,7.28,0,0,1,1.17-2.28,7.69,7.69,0,0,1,1-1.13,1.89,1.89,0,0,1,1.79-.59,1.08,1.08,0,0,1,.7.93,3.49,3.49,0,0,1-.07.89,5,5,0,0,1-.53,1.47,5.32,5.32,0,0,1-1.75,1.92c-1.26.82-2.24.75-2.23.67a19.53,19.53,0,0,0,1.9-1.12,5.37,5.37,0,0,0,1.43-1.81,4.63,4.63,0,0,0,.42-1.27c.1-.49.06-.93-.13-.94a1.32,1.32,0,0,0-1,.44,7.46,7.46,0,0,0-1,1,8.21,8.21,0,0,0-1.21,2C266.47,449,266.41,449.85,266.28,449.84Z" style="fill:#263238"></path><polygon points="316.96 359.13 341.87 398.43 359.2 387.32 335.87 346.32 316.96 359.13" style="fill:#ffbe9d"></polygon><path d="M352.64,375.78l12,20.67s25-5.26,27.63-1.65L353,419.5l-20-31.44Z" style="fill:#FF725E"></path><path d="M351.44,402.39a1.88,1.88,0,0,0,0,2.52,1.82,1.82,0,0,0,2.51,0,2,2,0,0,0-.06-2.67,1.89,1.89,0,0,0-2.61.31" style="fill:#e0e0e0"></path><path d="M353,419.5l-1.89-3.24,38.33-22.48s2.23-.34,2.8,1Z" style="fill:#e0e0e0"></path><path d="M365.15,395.85c.12.19-.79.88-1.34,2.09s-.55,2.33-.77,2.37-.64-1.25.06-2.71S365.08,395.65,365.15,395.85Z" style="fill:#263238"></path><path d="M370.34,395c.16.16-.46,1-.6,2.22s.21,2.2,0,2.31-1-.89-.79-2.41S370.22,394.78,370.34,395Z" style="fill:#263238"></path><path d="M375.78,398.41c-.15.15-1-.64-1.19-2s.47-2.34.65-2.23,0,1,.14,2.13S376,398.27,375.78,398.41Z" style="fill:#263238"></path><path d="M361.9,391.44c0,.23-1,.51-2.06,1.27s-1.66,1.63-1.87,1.53.18-1.3,1.42-2.17S361.9,391.23,361.9,391.44Z" style="fill:#263238"></path><path d="M359.4,387.31c.05.08-.63.68-2,1.23a10.24,10.24,0,0,1-2.46.67,14.09,14.09,0,0,1-1.5.11,3.31,3.31,0,0,1-.89-.09,1,1,0,0,1-.73-1,1.24,1.24,0,0,1,.57-1,2.92,2.92,0,0,1,.8-.36,7.54,7.54,0,0,1,1.48-.35,8,8,0,0,1,2.56,0,3.88,3.88,0,0,1,2.17.87c-.05.12-.87-.2-2.24-.31a8.91,8.91,0,0,0-2.37.11,9,9,0,0,0-1.35.36c-.48.16-.84.38-.83.63,0,.09,0,.13.18.19a2.08,2.08,0,0,0,.65.06,10.78,10.78,0,0,0,1.41-.06,13.34,13.34,0,0,0,2.36-.46A17,17,0,0,1,359.4,387.31Z" style="fill:#263238"></path><path d="M359.32,387.75c-.05.07-.86-.38-1.71-1.58a7.47,7.47,0,0,1-1.09-2.32,7.12,7.12,0,0,1-.25-1.5,1.94,1.94,0,0,1,.63-1.79,1.11,1.11,0,0,1,1.17,0,3.14,3.14,0,0,1,.65.59,5.24,5.24,0,0,1,.84,1.32,5.37,5.37,0,0,1,.43,2.56,3,3,0,0,1-.83,2.18,20.85,20.85,0,0,0,.28-2.2,5.46,5.46,0,0,0-.54-2.23,5,5,0,0,0-.75-1.12c-.33-.37-.7-.61-.83-.47a1.35,1.35,0,0,0-.28,1.08,7.66,7.66,0,0,0,.19,1.37,8.49,8.49,0,0,0,.85,2.2C358.75,387.06,359.41,387.65,359.32,387.75Z" style="fill:#263238"></path><path d="M148.75,271.78,175,360.54a9.29,9.29,0,0,0,8.9,6.65l106.68.29a9.86,9.86,0,0,0,9.88-10.39h0a9.87,9.87,0,0,0-9.85-9.34h-40.8l-32.67-91H160A11.73,11.73,0,0,0,148.75,271.78Z" style="fill:#455a64"></path><path d="M239,355c0,.21-10.88.38-24.3.38s-24.29-.17-24.29-.38,10.87-.37,24.29-.37S239,354.84,239,355Z" style="fill:#263238"></path><path d="M156.59,259.54c.2-.07,7.46,21.18,16.22,47.46s15.71,47.64,15.52,47.7-7.46-21.18-16.23-47.46S156.39,259.6,156.59,259.54Z" style="fill:#263238"></path><polygon points="234.57 480.64 228.07 480.42 228.07 367.19 234.57 367.19 234.57 480.64" style="fill:#455a64"></polygon><polygon points="201.06 480.53 261.58 480.53 234.16 471 227.66 471 201.06 480.53" style="fill:#455a64"></polygon><path d="M231.79,314.63c.34,1.54,38,36.86,38,36.86l-21.76,73.12,32.48,6.22,32.61-88.1-59.61-58.47-27.22,11.46Z" style="fill:#263238"></path><path d="M293.43,322.41l-26,17.09a77.91,77.91,0,0,1-40.34,12.76l-2.81.09a26.67,26.67,0,0,1-25.43-23.75,67,67,0,0,1,4.36-31.35l1.26-3.18,19.65,2.39,7.77,3.9s69.5-13.27,75.56-11.94c10.82,2.37,50.5,88.92,50.5,88.92l-26.11,15.44-38.38-70.37" style="fill:#263238"></path><path d="M316.85,368a2.3,2.3,0,0,1-.31-.43l-.77-1.28c-.68-1.11-1.61-2.74-2.74-4.76-2.26-4-5.28-9.71-8.48-16s-6-12.07-8-16.26c-1-2.1-1.79-3.8-2.32-5l-.6-1.37a1.5,1.5,0,0,1-.18-.49,1.8,1.8,0,0,1,.27.45q.29.52.69,1.32l2.47,4.9L305,345.27c3.2,6.31,6.16,12,8.34,16.08l2.59,4.84.7,1.33A2.35,2.35,0,0,1,316.85,368Z" style="fill:#455a64"></path><path d="M276.66,338.43a11.89,11.89,0,0,1-.94,2.34c-.64,1.41-1.56,3.35-2.6,5.47s-2,4-2.74,5.4a12,12,0,0,1-1.27,2.18,11.69,11.69,0,0,1,.94-2.33c.64-1.42,1.56-3.35,2.6-5.48s2-4,2.74-5.41A12.91,12.91,0,0,1,276.66,338.43Z" style="fill:#455a64"></path><path d="M299.74,318.55a3,3,0,0,1-.53.41L297.63,320,291.78,324c-5,3.27-11.79,7.84-19.47,12.68a151.21,151.21,0,0,1-20.46,11c-2.73,1.19-5,2-6.57,2.53l-1.83.57a3.19,3.19,0,0,1-.65.16,4.11,4.11,0,0,1,.61-.26l1.8-.66c1.55-.59,3.79-1.45,6.5-2.68A165.28,165.28,0,0,0,272,336.18c7.67-4.82,14.53-9.35,19.54-12.54l5.95-3.77,1.63-1A3.31,3.31,0,0,1,299.74,318.55Z" style="fill:#455a64"></path><path d="M275,292.42a3,3,0,0,1-.66.24l-1.95.61c-1.69.52-4.14,1.24-7.18,2.11-6.08,1.74-14.51,4-23.91,6.23s-18,3.85-24.2,5c-3.11.56-5.63,1-7.38,1.28l-2,.32a2.91,2.91,0,0,1-.71.07,4.32,4.32,0,0,1,.69-.17l2-.42,7.35-1.44c6.2-1.22,14.76-2.94,24.15-5.13S259,296.67,265.13,295l7.23-1.95,2-.52A3.29,3.29,0,0,1,275,292.42Z" style="fill:#455a64"></path><path d="M234.07,131.42c4.64-1.42,10.38-1.85,14.34,1.19,3.54,2.72,5.12,8.6,6.5,12.85a49,49,0,0,1,2.4,9.65,63.13,63.13,0,0,1,.06,8.59c-.13,5.58.31,11.49,3.46,16.11,1.83,2.68,4.51,4.82,5.73,7.84s-.15,8.81-2.08,11.35l-28.28-3.49Z" style="fill:#263238"></path><path d="M265.23,205.66s-1.12,32.5-3.14,39.93L255.58,266l9.5,25.83-23.45,6.3H201.21l8.3-23.59L193.29,234l40.07-24.92Z" style="fill:#FF725E"></path><g style="opacity:0.30000000000000004"><path d="M263.83,231.54a10.1,10.1,0,0,0-3.8-1.67c-5.65-1.57-11.67-.64-17.46.3s-11.84,1.94-17.09,4.7a37,37,0,0,0-12.55,11.58,111.32,111.32,0,0,0-8.45,15l1.5,4.35a51.31,51.31,0,0,0,16.84-18.64c1.32-2.5,2.67-5.33,5.3-6.37s5.77.07,8.22-1.28c1.45-.79,2.45-2.35,4-2.85,2.51-.78,5.14,1.48,7.71.95,1.82-.37,3.15-2.06,5-2.51a7,7,0,0,1,3.91.47,12.24,12.24,0,0,0,3.87,1,5.41,5.41,0,0,0,2.67-.93Z"></path></g><path d="M239.69,189.94l3.59,4.33s21.12,3,23.36,4.8a12.61,12.61,0,0,1,3.36,4.32L304,214a6.11,6.11,0,0,1,3.37,2.6l2.72,4.39-8.53,8.65-36.21,1.69H228.27C237.94,221.65,240.59,207,239.69,189.94Z" style="fill:#FF725E"></path><path d="M215.09,193.25l-6.25,1.15-5.1,8.22-14.14,7a6.62,6.62,0,0,0-3,3c-2.31,4.64-4.89,15.69-5.15,20.1-.33,5.59-13.92,31.5-7.55,42.44,1.82,3.13,7.53,4.64,11.7,5.34a13.11,13.11,0,0,0,8.25-1.32h0a16.8,16.8,0,0,0,8.17-9.7l10.78-33.32,15.48-4.88,2-6.42-10-28.66,4.44-3Z" style="fill:#FF725E"></path><path d="M255.22,220.43l42.73-5.8h2.41a10.66,10.66,0,0,1,10.44,8.52h0a10.66,10.66,0,0,1-6.72,12.12l-2.6,1a10.59,10.59,0,0,1-4.83.62l-41.07-4.07Z" style="fill:#ffbe9d"></path><path d="M206.75,236a8.05,8.05,0,0,1-.13-1.28,33.56,33.56,0,0,0-.5-3.46,48.06,48.06,0,0,0-1.29-5,49.66,49.66,0,0,0-2.18-6,17.69,17.69,0,0,0-3.47-5.21,11.53,11.53,0,0,0-4.28-2.73,10.07,10.07,0,0,0-4.68-.45,1.19,1.19,0,0,1,.32-.11,6,6,0,0,1,1-.19,8.5,8.5,0,0,1,3.52.4,11.74,11.74,0,0,1,4.51,2.73,17.71,17.71,0,0,1,3.6,5.34,45.85,45.85,0,0,1,2.17,6,44.34,44.34,0,0,1,1.2,5.1,24.17,24.17,0,0,1,.33,3.52A5.07,5.07,0,0,1,206.75,236Z" style="fill:#263238"></path><path d="M265.15,219.21a2.82,2.82,0,0,1-.29-.76c-.15-.5-.33-1.24-.51-2.16a30.62,30.62,0,0,1,.86-14.48,21.4,21.4,0,0,1,.76-2.08,2.85,2.85,0,0,1,.37-.73c.08,0-.31,1.12-.78,2.91a37.55,37.55,0,0,0-1.13,7.12,36.58,36.58,0,0,0,.29,7.2C265,218.07,265.23,219.19,265.15,219.21Z" style="fill:#263238"></path><path d="M266.3,217.22a15.18,15.18,0,0,1,.61-6,15.4,15.4,0,0,1,2.46-5.53c.15.08-1.12,2.47-2,5.67S266.46,217.22,266.3,217.22Z" style="fill:#263238"></path><path d="M245.47,221.87c-.09,0,.36-1.54.77-4a40.06,40.06,0,0,0-1.57-19.47c-.81-2.4-1.49-3.82-1.4-3.86a5.37,5.37,0,0,1,.55,1,25.58,25.58,0,0,1,1.2,2.77,36,36,0,0,1,1.58,19.65,24.87,24.87,0,0,1-.74,2.93A4.93,4.93,0,0,1,245.47,221.87Z" style="fill:#263238"></path><path d="M302.75,214a26.08,26.08,0,0,1-2.65-.26,29.76,29.76,0,0,0-6.36.15,29.06,29.06,0,0,0-6.17,1.54c-1.54.57-2.45,1-2.49.95a9.35,9.35,0,0,1,2.35-1.29,24,24,0,0,1,12.71-1.71A9,9,0,0,1,302.75,214Z" style="fill:#263238"></path><path d="M291.29,212.4c0,.16-1.72.51-3.53,1.66a34.6,34.6,0,0,0-3,2.46,8,8,0,0,1,6.56-4.12Z" style="fill:#263238"></path><path d="M236.4,272.35c-.15,0-1.25-7.93-2.46-17.74s-2.09-17.78-1.94-17.8,1.24,7.92,2.46,17.74S236.54,272.33,236.4,272.35Z" style="fill:#263238"></path><path d="M252.05,264.15c.07.13-6.4,3.65-14.45,7.86s-14.64,7.53-14.71,7.4,6.41-3.64,14.46-7.86S252,264,252.05,264.15Z" style="fill:#263238"></path><path d="M241.63,298.16a3.61,3.61,0,0,1-.49-.9c-.28-.59-.65-1.45-1.1-2.53-.9-2.16-2-5.18-3.14-8.56s-2-6.5-2.53-8.76c-.28-1.14-.49-2.06-.61-2.7a3.3,3.3,0,0,1-.14-1,32.91,32.91,0,0,1,1.1,3.61c.65,2.24,1.57,5.32,2.67,8.7s2.19,6.4,3,8.58A32.17,32.17,0,0,1,241.63,298.16Z" style="fill:#263238"></path><path d="M242.24,254.82a2.51,2.51,0,0,0-3.33.41h0a3.72,3.72,0,0,0-.84,2.84,2.87,2.87,0,0,0,1.94,2.68,2.48,2.48,0,0,0,2.21-.76,3.82,3.82,0,0,0,1-2.19A3.31,3.31,0,0,0,242.24,254.82Z" style="fill:#263238"></path><path d="M244.87,276.66a2.52,2.52,0,0,0-3.33.4h0a3.75,3.75,0,0,0-.84,2.85,2.84,2.84,0,0,0,1.93,2.67,2.45,2.45,0,0,0,2.21-.75,3.83,3.83,0,0,0,1-2.19A3.3,3.3,0,0,0,244.87,276.66Z" style="fill:#263238"></path><path d="M241,240.2a2.52,2.52,0,0,0-3.33.4h0a3.75,3.75,0,0,0-.84,2.85,2.84,2.84,0,0,0,1.93,2.67,2.43,2.43,0,0,0,2.21-.75,3.83,3.83,0,0,0,1-2.19A3.3,3.3,0,0,0,241,240.2Z" style="fill:#263238"></path><path d="M186.32,253.55a2.31,2.31,0,0,0-1.13-1.24,5.77,5.77,0,0,0-4.11.37,18.42,18.42,0,0,0-3.75,2.17,7.52,7.52,0,0,1-1.54,1c0-.06.45-.56,1.32-1.29a14.45,14.45,0,0,1,3.78-2.36c1.63-.63,3.36-.82,4.47-.21a2,2,0,0,1,.93,1.05C186.39,253.36,186.35,253.55,186.32,253.55Z" style="fill:#263238"></path><path d="M186.08,253.08a15.59,15.59,0,0,0-2.76-2.73,16.23,16.23,0,0,0-3.57-1.52c0-.06.46-.11,1.19,0a6.92,6.92,0,0,1,2.67,1.08,7.3,7.3,0,0,1,2,2.05C186,252.6,186.14,253.05,186.08,253.08Z" style="fill:#263238"></path><g style="opacity:0.30000000000000004"><path d="M186.08,253a11.46,11.46,0,0,0-2.66-2.31,3.88,3.88,0,0,0-3.39-.34c-.63.28-1.29.8-1.92.53a1.11,1.11,0,0,1-.6-1.15,2.27,2.27,0,0,1,.62-1.22,5.74,5.74,0,0,1,5.9-1.29,12.46,12.46,0,0,1,5.18,3.62"></path></g><g style="opacity:0.2"><path d="M223.1,279.42c2.5,1.68,5.32,3.44,8.3,3a10.45,10.45,0,0,0,4-1.81,41.11,41.11,0,0,0,13.49-14.76c-8.72,4.25-25.78,13.61-25.78,13.61"></path></g><path d="M213.94,141.29v3.78l-.25,56.67c0,6.57,10.7,31,17.74,31v-1.44c7.11,0,8.32-23.55,8.46-30.19.15-7,0-13.93,0-13.93s9-1.33,11.08-13c1-5.81.91-15.38.56-23.2-.32-7-10-15.12-17-14.5Z" style="fill:#ffbe9d"></path><path d="M247.92,158.91a1.5,1.5,0,0,1-1.48,1.49,1.44,1.44,0,0,1-1.53-1.38,1.51,1.51,0,0,1,1.48-1.49A1.44,1.44,0,0,1,247.92,158.91Z" style="fill:#263238"></path><path d="M249.37,155.88c-.19.2-1.31-.67-2.93-.69s-2.82.76-3,.56.11-.44.64-.81a4.16,4.16,0,0,1,2.39-.69,4,4,0,0,1,2.33.8C249.3,155.44,249.47,155.8,249.37,155.88Z" style="fill:#263238"></path><path d="M232.94,158.55a1.5,1.5,0,0,1-1.47,1.49,1.44,1.44,0,0,1-1.53-1.38,1.51,1.51,0,0,1,1.47-1.5A1.44,1.44,0,0,1,232.94,158.55Z" style="fill:#263238"></path><path d="M233.47,155.9c-.19.2-1.32-.67-2.94-.69s-2.81.76-3,.56.11-.44.64-.81a4.17,4.17,0,0,1,2.4-.69,4,4,0,0,1,2.33.8C233.4,155.46,233.56,155.82,233.47,155.9Z" style="fill:#263238"></path><path d="M239.12,168a10.39,10.39,0,0,1,2.64-.43c.41,0,.81-.11.88-.39a2.12,2.12,0,0,0-.25-1.23l-1.17-3.17c-1.62-4.51-2.78-8.21-2.6-8.28s1.64,3.54,3.26,8.05c.39,1.11.76,2.17,1.11,3.19a2.38,2.38,0,0,1,.19,1.62,1,1,0,0,1-.69.59,2.74,2.74,0,0,1-.7.09A10.83,10.83,0,0,1,239.12,168Z" style="fill:#263238"></path><path d="M239.9,187.17a29.78,29.78,0,0,1-15.62-4.47s3.91,8.12,15.66,7.24Z" style="fill:#eb996e"></path><path d="M238.37,171.89a2.92,2.92,0,0,0-2.59-1.13,2.68,2.68,0,0,0-1.86,1,1.67,1.67,0,0,0-.16,1.92,2,2,0,0,0,2.11.58A6.25,6.25,0,0,0,238,173a1.75,1.75,0,0,0,.47-.47.55.55,0,0,0,0-.6" style="fill:#eb996e"></path><path d="M238.87,174.61c-.23.12-.93-1.49-2.8-2s-3.52.36-3.63.14.25-.48,1-.81a4.37,4.37,0,0,1,3-.21,3.76,3.76,0,0,1,2.24,1.76C239,174.1,239,174.58,238.87,174.61Z" style="fill:#263238"></path><path d="M226.33,151.87c.1-.46,1.73-.47,3.58-1s3.3-1.21,3.6-.85c.14.17-.07.61-.63,1.12a6.39,6.39,0,0,1-5.47,1.37C226.69,152.38,226.29,152.09,226.33,151.87Z" style="fill:#263238"></path><path d="M243.34,150.29c.34-.31,1.37.25,2.69.5s2.48.17,2.68.6c.08.2-.16.53-.71.79a3.95,3.95,0,0,1-4.32-.88C243.27,150.85,243.18,150.45,243.34,150.29Z" style="fill:#263238"></path><path d="M235.69,132.48c3.17,4.14-5.17,12.89-8.74,16.69s-7.52,7.2-6.48,12.31c1.2,5.92,7,10.26,5.88,16.19-.42,2.17-2.1,4-2.09,6.23,0,4,5.19,5.87,6.71,9.55,2.08,5-3.45,10.14-3.48,15.59,0,3.1,1.76,6,1.89,9.07.25,6.34-7.21,11-13.37,9.55s-10.69-7.41-11.84-13.65c-.53-2.91-.43-11.39-.43-11.39l-9.1,4.51a21.93,21.93,0,0,1,1.49-18.37c3.39-6,5.46-12.58,7.51-19.13,1.8-5.74,1.75-11.86,2.51-17.82s2.53-12.19,7-16.16,18.78-7.88,22.5-3.17" style="fill:#263238"></path><path d="M234.74,135c2.44,3.46,5,7,8.74,9.07,1.22.67,2.54,1.15,3.77,1.8s3.48,2,4.16,3.27.55,4.54.55,4.54c.66-4.7-.58-10.92-3.87-14.34a16,16,0,0,0-12.91-4.74" style="fill:#263238"></path><path d="M195.44,161.62a13,13,0,0,0,2.34-.5,4.7,4.7,0,0,0,2.21-1.57,3.25,3.25,0,0,0,.45-3.37c-.53-1.24-1.77-2.23-2.5-3.79a6.1,6.1,0,0,1,.28-5.24,8.19,8.19,0,0,1,4.45-3.74c1.93-.75,4.07-.75,6-1.41a5.39,5.39,0,0,0,2.47-1.64,7.91,7.91,0,0,0,1.37-2.6,36.81,36.81,0,0,1,1.88-5.48,9.72,9.72,0,0,1,3.7-3.77,9.48,9.48,0,0,1,4.41-1.29,9.69,9.69,0,0,1,6.21,2.1,8.6,8.6,0,0,1,1.29,1.27c.25.33.37.5.35.52a14.24,14.24,0,0,0-1.76-1.63,9.77,9.77,0,0,0-6.07-1.89,9.36,9.36,0,0,0-7.7,4.92,35.48,35.48,0,0,0-1.82,5.42,8.8,8.8,0,0,1-1.46,2.77,6,6,0,0,1-2.7,1.79c-2.08.7-4.2.68-6,1.39a7.81,7.81,0,0,0-4.21,3.49,5.7,5.7,0,0,0-.31,4.85c.64,1.43,1.89,2.46,2.45,3.81a3.47,3.47,0,0,1,.23,2,4.09,4.09,0,0,1-.79,1.65,4.81,4.81,0,0,1-2.38,1.6,7.12,7.12,0,0,1-1.77.31A2.72,2.72,0,0,1,195.44,161.62Z" style="fill:#263238"></path><path d="M266.46,170.3a1.55,1.55,0,0,1,0,.55,4.6,4.6,0,0,1-.42,1.53,5.18,5.18,0,0,1-4.68,3.1,5.36,5.36,0,0,1-3.78-1.41,8,8,0,0,1-2.27-4,14,14,0,0,1-.26-5.1,41.71,41.71,0,0,1,1-5.36c.9-3.6,1.85-7,1.75-10.23a13,13,0,0,0-2.77-7.79,13.58,13.58,0,0,0-4.33-3.64c-1.2-.63-1.93-.84-1.91-.89a2.13,2.13,0,0,1,.54.13,9.73,9.73,0,0,1,1.46.58,13.08,13.08,0,0,1,4.53,3.59,13.26,13.26,0,0,1,3,8c.13,3.29-.83,6.78-1.72,10.36s-1.6,7.13-.8,10.22a7.62,7.62,0,0,0,2.09,3.84,5.09,5.09,0,0,0,6.45.39,5.28,5.28,0,0,0,1.54-1.84A7.22,7.22,0,0,0,266.46,170.3Z" style="fill:#263238"></path><path d="M209.35,198.21a2.25,2.25,0,0,1-.71-.5,4,4,0,0,1-1.13-2.22,6.48,6.48,0,0,1,.53-3.91c.59-1.44,1.62-2.88,2.46-4.59a9,9,0,0,0,.88-2.81,4.79,4.79,0,0,0-.62-3c-1.11-1.94-3.36-3.11-5.06-5.1a8.19,8.19,0,0,1-1.38-7.79,7.84,7.84,0,0,1,2.42-3.57c1-.95,2.31-1.82,2.69-3.15s-.36-2.73-.29-4.26a6.71,6.71,0,0,1,1.69-4,10.55,10.55,0,0,1,3.28-2.55,30.52,30.52,0,0,1,3.63-1.56,25.14,25.14,0,0,0,6.37-3.28,23.7,23.7,0,0,0,4.46-4.35,22.86,22.86,0,0,0,4.08-8.05,22.08,22.08,0,0,0,.54-2.42,4.65,4.65,0,0,1,.17-.85,8,8,0,0,1-.07.87,18,18,0,0,1-.44,2.45,22.37,22.37,0,0,1-4,8.22,23.28,23.28,0,0,1-4.5,4.48,24.77,24.77,0,0,1-6.45,3.37c-2.35.93-4.94,1.89-6.69,4a6.23,6.23,0,0,0-1.56,3.67c-.1,1.34.7,2.77.27,4.38a4.5,4.5,0,0,1-1.22,1.94c-.53.54-1.1,1-1.63,1.46a7.37,7.37,0,0,0-2.28,3.34,7.79,7.79,0,0,0,1.26,7.33c1.6,1.9,3.88,3.1,5.07,5.18a5.17,5.17,0,0,1,.65,3.29,9.34,9.34,0,0,1-.95,2.93c-.89,1.75-1.92,3.15-2.53,4.55a6.38,6.38,0,0,0-.59,3.76,4.14,4.14,0,0,0,1,2.18C209.1,198.05,209.37,198.19,209.35,198.21Z" style="fill:#455a64"></path><path d="M255.57,146.15a9.57,9.57,0,0,0-1.79-3.14,12.23,12.23,0,0,0-3.08-2.44c-1.3-.75-2.82-1.39-4.42-2.11a25.73,25.73,0,0,1-7.51-4.9,19.66,19.66,0,0,1-1.86-2,3.13,3.13,0,0,1-.57-.81c.06-.06,1,1,2.68,2.53a28.61,28.61,0,0,0,7.47,4.7,43,43,0,0,1,4.45,2.16,11.94,11.94,0,0,1,3.12,2.62,7.26,7.26,0,0,1,1.33,2.39A2.5,2.5,0,0,1,255.57,146.15Z" style="fill:#455a64"></path><path d="M219.77,226.82a5.91,5.91,0,0,1-.82-.71,10.57,10.57,0,0,1-1.87-2.47,11.2,11.2,0,0,1,.07-11,11.33,11.33,0,0,1,2.4-3,26.2,26.2,0,0,0,3-2.67,4.25,4.25,0,0,0,.89-1.82,4.84,4.84,0,0,0-.11-2.1,29.53,29.53,0,0,0-1.79-4.23,14.58,14.58,0,0,1-.57-9.91,41.74,41.74,0,0,1,2.14-4.82,5.8,5.8,0,0,0,.48-2.52,6.64,6.64,0,0,0-.75-2.49,41.88,41.88,0,0,0-3-4.46,41.07,41.07,0,0,1-2.89-4.44,15.14,15.14,0,0,1-1.77-4.83,11.18,11.18,0,0,1,.29-4.93,19.27,19.27,0,0,1,4.67-7.73c1.94-2.08,3.94-3.79,5.66-5.45a29.43,29.43,0,0,0,4.21-4.86,16.09,16.09,0,0,0,2.09-4.36,13,13,0,0,0,.49-4.09,5.2,5.2,0,0,1,.1,1.07,10.81,10.81,0,0,1-.39,3.08,16.49,16.49,0,0,1-2,4.46,29.32,29.32,0,0,1-4.2,5c-1.71,1.69-3.7,3.42-5.6,5.48a19,19,0,0,0-4.53,7.57,10.7,10.7,0,0,0-.26,4.72,15.35,15.35,0,0,0,1.72,4.67,41.51,41.51,0,0,0,2.87,4.37,42.08,42.08,0,0,1,3,4.53,6.93,6.93,0,0,1,.81,2.7,6.32,6.32,0,0,1-.52,2.74,42.06,42.06,0,0,0-2.13,4.78,14.16,14.16,0,0,0,.52,9.57,30.44,30.44,0,0,1,1.8,4.31,5.41,5.41,0,0,1,.09,2.3,4.49,4.49,0,0,1-1,2,25.25,25.25,0,0,1-3.1,2.71,11.19,11.19,0,0,0-3.83,8.95,11.35,11.35,0,0,0,1.28,4.63A13.22,13.22,0,0,0,219.77,226.82Z" style="fill:#455a64"></path><path d="M245.23,221.81l-12.39-.88a14,14,0,0,0-9.69,3l-40.52,32.21a28.39,28.39,0,0,0,2.42,9.2,13,13,0,0,0,10,7.27l1.59.22a2.51,2.51,0,0,0,2.36-1l24.23-34L240,234.16Z" style="fill:#ffbe9d"></path><path d="M244.34,221.87a7.4,7.4,0,0,1-1.28,0l-3.46-.16c-2.91-.09-7-.74-11.37.08a8.91,8.91,0,0,0-3,1.07c-.86.56-1.69,1.19-2.48,1.74l-4.15,3c-1.18.87-2.12,1.6-2.76,2.1a6.35,6.35,0,0,1-1,.76,5.6,5.6,0,0,1,.9-.91c.6-.56,1.51-1.33,2.66-2.24s2.54-2,4.1-3.14c.79-.57,1.58-1.18,2.49-1.78a9.26,9.26,0,0,1,3.14-1.15c4.51-.84,8.57-.12,11.49.06l3.46.32A5.15,5.15,0,0,1,244.34,221.87Z" style="fill:#eb996e"></path><path d="M253.73,220.54s-25.21,3-26.33,4.48-5.79,8.41-4.86,9.53a49,49,0,0,0,5,4.11s6.35-1.09,6.59-1.67a9.43,9.43,0,0,0,.54-3s5.87,3.44,9.23,2a5.21,5.21,0,0,0,2.32-2.77l8.41-.37Z" style="fill:#ffbe9d"></path><path d="M253.85,220.43a9.72,9.72,0,0,1-1.67.35l-4.57.78c-3.87.63-9.23,1.47-15.14,2.36-.74.12-1.48.2-2.16.37a6.32,6.32,0,0,0-1.91.79,9.42,9.42,0,0,0-2.8,2.75,24.43,24.43,0,0,0-1.8,3.17l-.72,1.5a2.28,2.28,0,0,0-.38,1.36c.05.93,1,1.36,1.53,1.89l1.53,1.28a10.49,10.49,0,0,1,1.27,1.13,10.38,10.38,0,0,1-1.4-1L224,236l-1-.76a2,2,0,0,1-.72-1.31,2.71,2.71,0,0,1,.39-1.57l.69-1.52a24.67,24.67,0,0,1,1.79-3.25,10,10,0,0,1,2.94-2.92,7,7,0,0,1,2-.86c.74-.18,1.48-.25,2.21-.37,5.92-.9,11.28-1.68,15.16-2.21l4.6-.62A10.13,10.13,0,0,1,253.85,220.43Z" style="fill:#eb996e"></path><path d="M229.05,230.51a6.56,6.56,0,0,1-1.31,3l-.09-.35a7.2,7.2,0,0,1,1.9,1.31c.15.15.3.3.42.44l-.27-.07a6.91,6.91,0,0,1,3.53-.24,1.25,1.25,0,0,1,.93.61c.11.26,0,.42,0,.41s0-.14-.18-.31a1.07,1.07,0,0,0-.82-.36,7.52,7.52,0,0,0-3.3.38l-.17.06-.11-.13c-.13-.14-.26-.28-.4-.41a7.53,7.53,0,0,0-1.75-1.26l-.25-.14.16-.22C228.47,231.71,228.94,230.47,229.05,230.51Z" style="fill:#eb996e"></path><path d="M238.38,235.6a23.09,23.09,0,0,1-4.91-2.08,21.74,21.74,0,0,1-4.6-2.71,37.94,37.94,0,0,1,4.83,2.24A35,35,0,0,1,238.38,235.6Z" style="fill:#eb996e"></path><path d="M230.08,234c-.13-.08.06-.61.21-1.27s.24-1.21.39-1.22.3.61.12,1.35S230.2,234.1,230.08,234Z" style="fill:#eb996e"></path><path d="M234.22,236c0-.06.28-.27.3-.79a1.48,1.48,0,0,0-1.23-1.33,5.92,5.92,0,0,0-2.13-.24c-.53.06-.81.3-.86.24s.16-.42.79-.6a4.6,4.6,0,0,1,2.36.1,2.29,2.29,0,0,1,1.15.76,1.42,1.42,0,0,1,.29,1.12C234.73,236,234.22,236.08,234.22,236Z" style="fill:#eb996e"></path><polygon points="258.22 233.41 254.32 233.41 252.94 220.43 256.19 219.97 258.22 233.41" style="fill:#263238"></polygon><rect x="249.74" y="219.64" width="8.96" height="0.67" transform="matrix(0.99, -0.14, 0.14, 0.99, -27.79, 36.98)" style="fill:#263238"></rect><path d="M257,226.52c.06,0,.28.28.22.84a1.71,1.71,0,0,1-.39.91,1.84,1.84,0,0,1-2.27.46,1.75,1.75,0,0,1-.71-.69c-.27-.5-.19-.86-.13-.86s.14.3.44.66a1.55,1.55,0,0,0,2.7-.55C257,226.85,257,226.54,257,226.52Z" style="fill:#455a64"></path><path d="M258.87,219.75a40.37,40.37,0,0,1-9.1,1.2,20.05,20.05,0,0,1,4.52-.86A20.6,20.6,0,0,1,258.87,219.75Z" style="fill:#455a64"></path><path d="M256.08,231.36a.27.27,0,0,1-.31-.22.27.27,0,0,1,.19-.33.28.28,0,0,1,.32.22A.28.28,0,0,1,256.08,231.36Z" style="fill:#455a64"></path><path d="M255.2,225.32a.32.32,0,0,1-.3-.32c0-.18.09-.35.23-.36s.27.13.29.31A.31.31,0,0,1,255.2,225.32Z" style="fill:#455a64"></path><path d="M254.8,222.67a.28.28,0,0,1-.26-.3.27.27,0,0,1,.26-.29.28.28,0,0,1,.26.29A.29.29,0,0,1,254.8,222.67Z" style="fill:#455a64"></path><path d="M201.21,271.68s-.08.08-.26.19a5.73,5.73,0,0,1-.82.4,8.74,8.74,0,0,1-3.28.66,14.57,14.57,0,0,1-10-4.34,14.16,14.16,0,0,1-3-5.32,27.62,27.62,0,0,1-1.06-4.84,33.2,33.2,0,0,1-.27-3.32,4.46,4.46,0,0,1,0-1.22c.09,0,.15,1.73.59,4.48a29,29,0,0,0,1.16,4.75,14,14,0,0,0,2.88,5.11,14.74,14.74,0,0,0,9.59,4.33,9.35,9.35,0,0,0,3.21-.48C200.8,271.84,201.19,271.64,201.21,271.68Z" style="fill:#263238"></path><path d="M270.38,351.33c-.12.11-2.12-2-4.83-4.41s-5.05-4.13-5-4.26a24.4,24.4,0,0,1,5.32,3.87A25,25,0,0,1,270.38,351.33Z" style="fill:#455a64"></path></g><g id="freepik--Calendar--inject-270"><rect x="301.38" y="117.2" width="93.4" height="83.56" style="fill:#fafafa"></rect><path d="M394.78,200.76s0-.54,0-1.55,0-2.53,0-4.48c0-3.92,0-9.66-.06-17,0-14.6-.06-35.46-.11-60.57l.22.22-93.39,0h0l.26-.26c0,30.4,0,59,0,83.56l-.23-.23,67.55.12,19.06.06,5,0,1.3,0h0l-1.28,0-5,0-19,.06-67.7.12h-.23v-.23c0-24.55,0-53.16,0-83.56v-.26h.27l93.39,0H395v.22c-.05,25.17-.08,46.07-.11,60.71,0,7.28-.05,13-.06,16.91,0,1.93,0,3.42,0,4.44S394.78,200.76,394.78,200.76Z" style="fill:#263238"></path><path d="M394.78,200.76s0-.54,0-1.55,0-2.52,0-4.48c0-3.92,0-9.66-.05-17,0-14.6-.07-35.46-.11-60.57l.21.21-93.39,0h0l.25-.25c0,30.4,0,59,0,83.56l-.22-.22,67.56.11,19.05.06,5,0h1.33l-1.28,0-5,0-19,.06-67.7.11h-.22v-.22c0-24.55,0-53.16,0-83.56V117h.26l93.39,0H395v.21c0,25.16-.08,46.07-.11,60.7,0,7.29,0,13-.05,16.92,0,1.93,0,3.42,0,4.44S394.78,200.76,394.78,200.76Z" style="fill:#263238"></path><path d="M337.2,132.05c0,.14-4.92.25-11,.25s-11-.11-11-.25,4.91-.25,11-.25S337.2,131.91,337.2,132.05Z" style="fill:#263238"></path><path d="M376.77,138.32c0,.14-13.51.25-30.16.25s-30.17-.11-30.17-.25,13.51-.25,30.17-.25S376.77,138.18,376.77,138.32Z" style="fill:#263238"></path><rect x="315.4" y="148.95" width="3.93" height="3.93" style="fill:#263238"></rect><rect x="325.08" y="148.95" width="3.93" height="3.93" style="fill:#263238"></rect><rect x="334.95" y="148.77" width="3.93" height="3.93" style="fill:#FF725E"></rect><rect x="344.45" y="148.95" width="3.93" height="3.93" style="fill:#263238"></rect><rect x="354.14" y="148.95" width="3.93" height="3.93" style="fill:#263238"></rect><rect x="363.83" y="148.95" width="3.93" height="3.93" style="fill:#263238"></rect><rect x="373.51" y="148.95" width="3.93" height="3.93" style="fill:#263238"></rect><rect x="315.4" y="157.31" width="3.93" height="3.93" style="fill:#263238"></rect><rect x="325.08" y="157.31" width="3.93" height="3.93" style="fill:#263238"></rect><rect x="334.77" y="157.31" width="3.93" height="3.93" style="fill:#263238"></rect><rect x="344.45" y="157.31" width="3.93" height="3.93" style="fill:#263238"></rect><rect x="354.14" y="157.31" width="3.93" height="3.93" style="fill:#263238"></rect><rect x="364" y="157.14" width="3.93" height="3.93" style="fill:#FF725E"></rect><rect x="373.51" y="157.31" width="3.93" height="3.93" style="fill:#263238"></rect><rect x="315.4" y="165.68" width="3.93" height="3.93" style="fill:#263238"></rect><rect x="325.26" y="165.5" width="3.93" height="3.93" style="fill:#FF725E"></rect><rect x="334.77" y="165.68" width="3.93" height="3.93" style="fill:#263238"></rect><rect x="344.45" y="165.68" width="3.93" height="3.93" style="fill:#263238"></rect><rect x="354.14" y="165.68" width="3.93" height="3.93" style="fill:#263238"></rect><rect x="363.83" y="165.68" width="3.93" height="3.93" style="fill:#263238"></rect><rect x="373.51" y="165.68" width="3.93" height="3.93" style="fill:#263238"></rect><rect x="315.4" y="174.05" width="3.93" height="3.93" style="fill:#263238"></rect><rect x="325.08" y="174.05" width="3.93" height="3.93" style="fill:#263238"></rect><rect x="334.77" y="174.05" width="3.93" height="3.93" style="fill:#263238"></rect><rect x="344.63" y="173.87" width="3.93" height="3.93" style="fill:#FF725E"></rect><rect x="354.14" y="174.05" width="3.93" height="3.93" style="fill:#263238"></rect><rect x="363.83" y="174.05" width="3.93" height="3.93" style="fill:#263238"></rect><rect x="373.51" y="174.05" width="3.93" height="3.93" style="fill:#263238"></rect><rect x="315.4" y="182.41" width="3.93" height="3.93" style="fill:#263238"></rect><rect x="325.08" y="182.41" width="3.93" height="3.93" style="fill:#263238"></rect><rect x="334.77" y="182.41" width="3.93" height="3.93" style="fill:#263238"></rect><rect x="344.45" y="182.41" width="3.93" height="3.93" style="fill:#263238"></rect><rect x="354.14" y="182.41" width="3.93" height="3.93" style="fill:#263238"></rect><rect x="364" y="182.23" width="3.93" height="3.93" style="fill:#FF725E"></rect><rect x="373.51" y="182.41" width="3.93" height="3.93" style="fill:#263238"></rect></g><g id="freepik--Desk--inject-270"><rect x="127.06" y="290.45" width="8.07" height="190.19" style="fill:#263238"></rect><rect x="364.13" y="290.45" width="8.07" height="189.61" style="fill:#263238"></rect><rect x="116.5" y="202.18" width="10.59" height="52.02" transform="translate(350.63 107.6) rotate(90.3)" style="fill:#263238"></rect><rect x="110.31" y="222.99" width="16.45" height="57.98" transform="translate(371.15 134.78) rotate(90.3)" style="fill:#455a64"></rect><path d="M100.68,259.94a61.49,61.49,0,0,0,.28-8.22,61.58,61.58,0,0,0-.28-8.23,59.63,59.63,0,0,0-.28,8.23A59.54,59.54,0,0,0,100.68,259.94Z" style="fill:#fafafa"></path><path d="M98.24,259.94a59.54,59.54,0,0,0,.28-8.22,59.63,59.63,0,0,0-.28-8.23,61.58,61.58,0,0,0-.28,8.23A61.49,61.49,0,0,0,98.24,259.94Z" style="fill:#fafafa"></path><path d="M138.76,259.94a58.53,58.53,0,0,0,.29-8.22,58.62,58.62,0,0,0-.29-8.23,61.58,61.58,0,0,0-.28,8.23A61.49,61.49,0,0,0,138.76,259.94Z" style="fill:#fafafa"></path><path d="M136.33,259.94a61.49,61.49,0,0,0,.28-8.22,61.58,61.58,0,0,0-.28-8.23,59.63,59.63,0,0,0-.28,8.23A59.54,59.54,0,0,0,136.33,259.94Z" style="fill:#fafafa"></path><path d="M131,252c0-.16-5.85-.28-13.06-.28s-13.06.12-13.06.28,5.84.29,13.06.29S131,252.14,131,252Z" style="fill:#fafafa"></path><rect x="98.24" y="202.63" width="10.59" height="71.55" transform="translate(342.48 136.13) rotate(90.3)" style="fill:#FF725E"></rect><path d="M78,242.2a3.43,3.43,0,1,0-3.38-3.43A3.41,3.41,0,0,0,78,242.2Z" style="fill:#fafafa"></path><rect x="110.17" y="214.82" width="2.12" height="47.89" transform="translate(349.99 127.55) rotate(90)" style="fill:#fafafa"></rect><rect x="61.79" y="285.93" width="346.71" height="6.51" style="fill:#263238"></rect><rect x="107.92" y="248.73" width="16.45" height="57.98" transform="translate(394.49 163.05) rotate(90.3)" style="fill:#FF725E"></rect><path d="M98.29,285.68a61.49,61.49,0,0,0,.28-8.22,61.58,61.58,0,0,0-.28-8.23,59.63,59.63,0,0,0-.28,8.23A59.54,59.54,0,0,0,98.29,285.68Z" style="fill:#fafafa"></path><path d="M95.85,285.68a59.54,59.54,0,0,0,.28-8.22,59.63,59.63,0,0,0-.28-8.23,61.58,61.58,0,0,0-.28,8.23A61.49,61.49,0,0,0,95.85,285.68Z" style="fill:#fafafa"></path><path d="M136.37,285.68a59.54,59.54,0,0,0,.28-8.22,59.63,59.63,0,0,0-.28-8.23,61.58,61.58,0,0,0-.28,8.23A61.49,61.49,0,0,0,136.37,285.68Z" style="fill:#fafafa"></path><path d="M133.94,285.68a61.49,61.49,0,0,0,.28-8.22,61.58,61.58,0,0,0-.28-8.23,59.63,59.63,0,0,0-.28,8.23A59.54,59.54,0,0,0,133.94,285.68Z" style="fill:#fafafa"></path><path d="M128.62,277.72c0-.16-5.85-.28-13.06-.28s-13.07.12-13.07.28,5.85.29,13.07.29S128.62,277.88,128.62,277.72Z" style="fill:#fafafa"></path><rect x="96.21" y="228.87" width="10.59" height="71.55" transform="translate(366.68 164.55) rotate(90.3)" style="fill:#263238"></rect><path d="M75.94,268.44A3.43,3.43,0,1,0,72.56,265,3.4,3.4,0,0,0,75.94,268.44Z" style="fill:#fafafa"></path><rect x="108.13" y="241.07" width="2.12" height="47.89" transform="translate(374.2 155.83) rotate(90)" style="fill:#fafafa"></rect><path d="M375.2,233.21l-1.4,25.73a1.74,1.74,0,0,1-1.72,1.64l-46.3.34a1.75,1.75,0,0,1-1.75-1.73l-.15-20a1.75,1.75,0,0,1,1.74-1.75l28.47,0a1.73,1.73,0,0,0,1.23-.51l4.91-4.91a1.8,1.8,0,0,1,1.22-.51l12-.09A1.75,1.75,0,0,1,375.2,233.21Z" style="fill:#FF725E"></path><g style="opacity:0.30000000000000004"><path d="M375.2,233.21l-1.4,25.73a1.74,1.74,0,0,1-1.72,1.64l-46.3.34a1.75,1.75,0,0,1-1.75-1.73l-.15-20a1.75,1.75,0,0,1,1.74-1.75l28.47,0a1.73,1.73,0,0,0,1.23-.51l4.91-4.91a1.8,1.8,0,0,1,1.22-.51l12-.09A1.75,1.75,0,0,1,375.2,233.21Z"></path></g><rect x="323.96" y="234.2" width="50.59" height="30.23" transform="translate(700.32 496.07) rotate(179.58)" style="fill:#f5f5f5"></rect><path d="M378.48,236.7l-3.63,31.55a1.12,1.12,0,0,1-1.1,1l-49.3.36a1.12,1.12,0,0,1-1.13-1l-2.71-31.5a1.13,1.13,0,0,1,1.11-1.22l55.64-.4A1.11,1.11,0,0,1,378.48,236.7Z" style="fill:#FF725E"></path><path d="M388.82,228.35l-1.4,25.73a1.72,1.72,0,0,1-1.72,1.64l-46.3.34a1.73,1.73,0,0,1-1.75-1.72l-.15-20a1.75,1.75,0,0,1,1.74-1.75l28.47,0a1.74,1.74,0,0,0,1.23-.51l4.91-4.91a1.71,1.71,0,0,1,1.22-.51l12-.09A1.73,1.73,0,0,1,388.82,228.35Z" style="fill:#FF725E"></path><g style="opacity:0.30000000000000004"><path d="M388.82,228.35l-1.4,25.73a1.72,1.72,0,0,1-1.72,1.64l-46.3.34a1.73,1.73,0,0,1-1.75-1.72l-.15-20a1.75,1.75,0,0,1,1.74-1.75l28.47,0a1.74,1.74,0,0,0,1.23-.51l4.91-4.91a1.71,1.71,0,0,1,1.22-.51l12-.09A1.73,1.73,0,0,1,388.82,228.35Z"></path></g><rect x="337.58" y="229.35" width="50.59" height="30.23" transform="translate(727.53 486.26) rotate(179.58)" style="fill:#f5f5f5"></rect><path d="M392.1,231.85l-3.63,31.55a1.12,1.12,0,0,1-1.1,1l-49.3.36a1.11,1.11,0,0,1-1.12-1l-2.72-31.51a1.12,1.12,0,0,1,1.11-1.21L391,230.6A1.12,1.12,0,0,1,392.1,231.85Z" style="fill:#FF725E"></path><g style="opacity:0.30000000000000004"><path d="M392.1,231.85l-3.63,31.55a1.12,1.12,0,0,1-1.1,1l-49.3.36a1.11,1.11,0,0,1-1.12-1l-2.72-31.51a1.12,1.12,0,0,1,1.11-1.21L391,230.6A1.12,1.12,0,0,1,392.1,231.85Z"></path></g><path d="M404.17,234.38l-1.4,25.73a1.74,1.74,0,0,1-1.72,1.64l-46.3.34a1.74,1.74,0,0,1-1.75-1.73l-.14-20a1.73,1.73,0,0,1,1.73-1.75l28.48,0a1.69,1.69,0,0,0,1.22-.51l4.92-4.91a1.75,1.75,0,0,1,1.21-.51l12-.09A1.74,1.74,0,0,1,404.17,234.38Z" style="fill:#FF725E"></path><rect x="352.93" y="235.37" width="50.59" height="30.23" transform="translate(758.28 498.2) rotate(179.58)" style="fill:#f5f5f5"></rect><path d="M407.45,237.87l-3.63,31.55a1.11,1.11,0,0,1-1.1,1l-49.3.36a1.11,1.11,0,0,1-1.12-1l-2.72-31.5a1.13,1.13,0,0,1,1.11-1.22l55.64-.4A1.1,1.1,0,0,1,407.45,237.87Z" style="fill:#FF725E"></path><path d="M349.58,242.16v43.77h63.14V242.16ZM370.19,250a3.23,3.23,0,0,1,3.23-3.23h15.46a3.23,3.23,0,1,1,0,6.46H373.42A3.23,3.23,0,0,1,370.19,250Z" style="fill:#455a64"></path><path d="M315.54,242.16v43.77h34V242.16Z" style="fill:#263238"></path><path d="M279.84,246.86v21.4h-3.58v2.32h3.58V284.9h66.77v-13h-4.95V269h4.95v-4.25h2.2v-1.94H346.2v-16Z" style="fill:#f5f5f5"></path><polygon points="328.88 246.93 328.88 284.66 346.61 284.66 346.61 271.63 341.66 271.63 341.66 269.03 346.61 269.12 346.61 264.86 348.85 264.87 348.81 262.67 346.2 262.6 346.2 246.86 328.88 246.93" style="fill:#e0e0e0"></polygon><path d="M330.14,270.27c0,.14-12.08.24-27,.24s-27-.1-27-.24,12.08-.23,27-.23S330.14,270.14,330.14,270.27Z" style="fill:#e0e0e0"></path><path d="M330.14,268.1c0,.13-12.08.24-27,.24s-27-.11-27-.24,12.08-.24,27-.24S330.14,268,330.14,268.1Z" style="fill:#e0e0e0"></path><path d="M333.61,262.25c0,.13-12.09.24-27,.24s-27-.11-27-.24,12.08-.24,27-.24S333.61,262.12,333.61,262.25Z" style="fill:#e0e0e0"></path><path d="M333.94,278.19c0,.13-12.08.24-27,.24s-27-.11-27-.24,12.08-.24,27-.24S333.94,278.06,333.94,278.19Z" style="fill:#e0e0e0"></path></g><g id="freepik--Plant--inject-270"><path d="M423.11,449.7a3.38,3.38,0,0,1,.21-.49c.16-.36.39-.83.67-1.43a35.57,35.57,0,0,0,1.95-5.68c1.3-5.06,1.75-12.79-.16-22a118.17,118.17,0,0,0-4.08-14.76c-1.72-5.24-3.72-10.79-5.36-16.8a64.83,64.83,0,0,1-2.65-19.32c.25-6.83,2.27-13.65,4.5-20.44s4.51-13.44,5.2-20.13a30.67,30.67,0,0,0-3.69-18.59c-2.94-5.42-6.65-10.06-9.42-14.87a51.38,51.38,0,0,1-5.66-14.3,53.07,53.07,0,0,1-.36-22.14,41.2,41.2,0,0,1,2.31-7.83,3.28,3.28,0,0,1-.14.52c-.11.37-.27.87-.47,1.5a59.48,59.48,0,0,0-1.43,5.86,53.87,53.87,0,0,0,.57,22,51.72,51.72,0,0,0,5.68,14.11c2.77,4.75,6.49,9.37,9.49,14.86a31.27,31.27,0,0,1,3.81,19c-.69,6.8-3,13.49-5.22,20.28s-4.23,13.53-4.48,20.25A64.51,64.51,0,0,0,417,388.4c1.61,6,3.59,11.54,5.29,16.79a117.31,117.31,0,0,1,4,14.84c1.86,9.25,1.33,17.06-.06,22.13a32.77,32.77,0,0,1-2.09,5.68l-.74,1.4A2.21,2.21,0,0,1,423.11,449.7Z" style="fill:#263238"></path><path d="M414,300s-5.63-18,4.47-28.54a.62.62,0,0,1,1.07.31C420.12,274.7,420.8,283.76,414,300Z" style="fill:#FF725E"></path><path d="M417.42,277.42a17.53,17.53,0,0,1-.38,3.32c-.37,2.29-.81,5-1.29,7.94s-.89,5.65-1.26,7.94a18.94,18.94,0,0,1-.59,3.28,13.45,13.45,0,0,1,.1-3.34c.18-2.06.55-4.89,1.06-8s1.05-5.9,1.49-7.91A14.57,14.57,0,0,1,417.42,277.42Z" style="fill:#263238"></path><path d="M420.66,342.42s3.44-18.55,17.3-23.14a.63.63,0,0,1,.8.77C437.84,322.93,434.2,331.25,420.66,342.42Z" style="fill:#FF725E"></path><path d="M434.18,324.07a16.16,16.16,0,0,1-1.89,2.76c-1.39,1.85-3,4-4.85,6.42l-4.82,6.42a17.56,17.56,0,0,1-2.07,2.63,14.12,14.12,0,0,1,1.66-2.91c1.12-1.73,2.77-4.06,4.67-6.57s3.69-4.73,5-6.3A15.14,15.14,0,0,1,434.18,324.07Z" style="fill:#263238"></path><path d="M416.91,388.94s-2.09-18.74,9.83-27.16a.63.63,0,0,1,1,.51C427.7,365.31,426.63,374.32,416.91,388.94Z" style="fill:#FF725E"></path><path d="M424.52,367.46a16.81,16.81,0,0,1-1,3.18l-2.78,7.55L418,385.75a18.27,18.27,0,0,1-1.21,3.11,13.53,13.53,0,0,1,.74-3.27c.57-2,1.47-4.69,2.56-7.64s2.16-5.59,3-7.49A15.18,15.18,0,0,1,424.52,367.46Z" style="fill:#263238"></path><path d="M427.35,435.74s-1.42-18.81,10.8-26.8a.62.62,0,0,1,1,.55C439,412.5,437.59,421.48,427.35,435.74Z" style="fill:#FF725E"></path><path d="M435.73,414.54a17.88,17.88,0,0,1-1.12,3.15l-3.05,7.44-3,7.45a17.94,17.94,0,0,1-1.32,3.07,13.83,13.83,0,0,1,.85-3.24c.65-2,1.64-4.63,2.84-7.54s2.36-5.52,3.24-7.38A14.74,14.74,0,0,1,435.73,414.54Z" style="fill:#263238"></path><path d="M406,284.14s-16.72-8.73-17-23.32a.62.62,0,0,1,1-.54C392.37,262,399.25,267.92,406,284.14Z" style="fill:#FF725E"></path><path d="M392.38,265.83a17.33,17.33,0,0,1,2.08,2.62l4.71,6.51,4.73,6.5a17.49,17.49,0,0,1,1.91,2.75,13.78,13.78,0,0,1-2.3-2.44c-1.32-1.58-3.07-3.84-4.91-6.39s-3.44-4.92-4.55-6.65A14.65,14.65,0,0,1,392.38,265.83Z" style="fill:#263238"></path><path d="M423.91,322.81s-17.22-7.7-18.44-22.25a.63.63,0,0,1,.94-.6C409,301.53,416.23,307,423.91,322.81Z" style="fill:#FF725E"></path><path d="M409.24,305.35a16.45,16.45,0,0,1,2.24,2.48l5.1,6.22,5.12,6.21a18.32,18.32,0,0,1,2.07,2.62,13.84,13.84,0,0,1-2.44-2.29c-1.42-1.5-3.3-3.65-5.29-6.09s-3.73-4.69-5-6.36A15.51,15.51,0,0,1,409.24,305.35Z" style="fill:#263238"></path><path d="M414,365.93s-11.82-14.7-6.28-28.2a.62.62,0,0,1,1.11-.1C410.42,340.2,414.36,348.38,414,365.93Z" style="fill:#FF725E"></path><path d="M408.89,343.71a16.63,16.63,0,0,1,.87,3.23c.49,2.27,1.07,4.93,1.7,7.86s1.24,5.59,1.73,7.85a17.92,17.92,0,0,1,.65,3.28,13.58,13.58,0,0,1-1.13-3.15c-.58-2-1.27-4.75-1.94-7.83s-1.18-5.88-1.5-7.91A15.74,15.74,0,0,1,408.89,343.71Z" style="fill:#263238"></path><path d="M425.71,416.68s-17.09-8-18.06-22.55a.63.63,0,0,1,1-.59C411.16,395.15,418.3,400.76,425.71,416.68Z" style="fill:#FF725E"></path><path d="M411.34,399a16.4,16.4,0,0,1,2.2,2.52l5,6.31,5,6.28a18.36,18.36,0,0,1,2,2.66,13.8,13.8,0,0,1-2.4-2.33c-1.4-1.53-3.24-3.7-5.19-6.18s-3.65-4.75-4.84-6.44A14.86,14.86,0,0,1,411.34,399Z" style="fill:#263238"></path><path d="M459.74,342.52s0,.14,0,.42,0,.72,0,1.2c-.05,1.13-.12,2.67-.21,4.58-.22,4-.52,9.62-.89,16.33h0v0c-1.22,6.82-4.69,14.39-9.36,21.73-3.43,5.41-7,10.33-10.11,14.91a104.06,104.06,0,0,0-7.58,12.53,53.2,53.2,0,0,0-3.55,9.19c-.3,1.13-.53,2-.66,2.61a4.32,4.32,0,0,1-.25.91,5.81,5.81,0,0,1,.11-.94c.09-.61.27-1.5.53-2.65a48.5,48.5,0,0,1,3.37-9.34,99.23,99.23,0,0,1,7.49-12.68c3.07-4.6,6.64-9.53,10.05-14.91,4.65-7.31,8.1-14.76,9.37-21.48v0c.48-6.7.87-12.3,1.15-16.32.16-1.9.28-3.43.37-4.56.05-.48.09-.87.12-1.2A1.72,1.72,0,0,1,459.74,342.52Z" style="fill:#263238"></path><path d="M449.57,385.42s7.24-17.42-1.87-28.83a.62.62,0,0,0-1.09.21C445.8,359.71,444.31,368.67,449.57,385.42Z" style="fill:#FF725E"></path><path d="M448.25,362.66a14.88,14.88,0,0,1,.58,3.3c.25,2,.54,4.88.76,8s.33,6,.33,8a13.73,13.73,0,0,1-.2,3.34,18.47,18.47,0,0,1-.29-3.32c-.16-2.31-.34-5-.54-8s-.4-5.72-.56-8A17.21,17.21,0,0,1,448.25,362.66Z" style="fill:#263238"></path><g style="opacity:0.30000000000000004"><path d="M449.57,385.42s7.24-17.42-1.87-28.83a.62.62,0,0,0-1.09.21C445.8,359.71,444.31,368.67,449.57,385.42Z"></path></g><path d="M427.16,427.39s5.8-17.94-4.2-28.58a.62.62,0,0,0-1.07.3C421.32,402.08,420.56,411.12,427.16,427.39Z" style="fill:#FF725E"></path><path d="M424,404.82a15.33,15.33,0,0,1,.84,3.24c.42,2,.93,4.82,1.41,7.93s.82,5.94,1,8a13.65,13.65,0,0,1,.07,3.35,19.2,19.2,0,0,1-.56-3.29c-.34-2.29-.74-5-1.19-8s-.86-5.66-1.2-7.95A15.79,15.79,0,0,1,424,404.82Z" style="fill:#263238"></path><g style="opacity:0.30000000000000004"><path d="M427.16,427.39s5.8-17.94-4.2-28.58a.62.62,0,0,0-1.07.3C421.32,402.08,420.56,411.12,427.16,427.39Z"></path></g><path d="M458.79,364.13s15.45-10.82,13.89-25.33a.63.63,0,0,0-1-.41C469.4,340.42,463.34,347.17,458.79,364.13Z" style="fill:#FF725E"></path><g style="opacity:0.30000000000000004"><path d="M458.79,364.13s15.45-10.82,13.89-25.33a.63.63,0,0,0-1-.41C469.4,340.42,463.34,347.17,458.79,364.13Z"></path></g><path d="M469.88,344.22a15,15,0,0,1-1.28,3.09c-.88,1.86-2.16,4.41-3.66,7.18s-2.93,5.23-4,7a14.18,14.18,0,0,1-2,2.72,17.1,17.1,0,0,1,1.53-3l3.85-7.06,3.83-7.07A17.82,17.82,0,0,1,469.88,344.22Z" style="fill:#263238"></path><path d="M433.39,409.6S452,406.69,457,393a.63.63,0,0,0-.75-.83C453.36,393,444.94,396.38,433.39,409.6Z" style="fill:#FF725E"></path><g style="opacity:0.30000000000000004"><path d="M433.39,409.6S452,406.69,457,393a.63.63,0,0,0-.75-.83C453.36,393,444.94,396.38,433.39,409.6Z"></path></g><path d="M452.12,396.61a15.09,15.09,0,0,1-2.51,2.21c-1.62,1.28-3.89,3-6.45,4.83s-4.94,3.41-6.7,4.49a14.73,14.73,0,0,1-3,1.57,17.76,17.76,0,0,1,2.69-2l6.56-4.64,6.56-4.66A16.66,16.66,0,0,1,452.12,396.61Z" style="fill:#263238"></path><polygon points="415.61 443.9 410.17 480.49 444.05 480.49 439.66 443.9 415.61 443.9" style="fill:#455a64"></polygon><path d="M441,455.24c0,.19-6.11.35-13.66.35s-13.66-.16-13.66-.35,6.12-.36,13.66-.36S441,455,441,455.24Z" style="fill:#263238"></path><path d="M441.68,458.15c0,.19-6.31.35-14.1.35s-14.11-.16-14.11-.35,6.31-.36,14.11-.36S441.68,458,441.68,458.15Z" style="fill:#263238"></path></g></svg>